<?xml version="1.0" standalone="no"?>
<!DOCTYPE svg PUBLIC "-//W3C//DTD SVG 20010904//EN"
 "http://www.w3.org/TR/2001/REC-SVG-20010904/DTD/svg10.dtd">
<svg version="1.0" xmlns="http://www.w3.org/2000/svg"
 width="4501.000000pt" height="4500.000000pt" viewBox="0 0 4501.000000 4500.000000"
 preserveAspectRatio="xMidYMid meet">

<g transform="translate(0.000000,4500.000000) scale(0.100000,-0.100000)"
fill="#000000" stroke="none">
<path d="M23171 44485 c-94 -21 -343 -146 -598 -301 -12 -8 -34 -34 -49 -60
l-27 -45 12 -137 c7 -75 41 -458 77 -850 35 -391 64 -719 64 -728 0 -21 59
-14 216 26 285 74 561 204 937 443 140 89 162 107 178 142 19 44 38 309 61
835 15 366 31 335 -252 496 -314 178 -446 216 -619 179z"/>
<path d="M23310 42239 c-344 -142 -628 -260 -632 -261 -10 -4 23 -600 33 -612
10 -11 225 8 329 30 114 23 330 98 445 153 191 93 434 278 450 344 3 12 4 153
3 313 l-3 292 -625 -259z"/>
<path d="M23736 41334 c-329 -166 -432 -202 -790 -274 -110 -22 -201 -40 -203
-40 -2 0 -3 -173 -3 -384 l0 -385 45 -7 c119 -17 420 70 653 191 150 78 407
243 455 293 20 20 30 45 37 88 12 69 14 614 3 613 -5 0 -93 -43 -197 -95z"/>
<path d="M23330 40077 l-595 -222 -3 -263 -2 -262 63 0 c216 0 498 68 725 176
333 157 462 335 431 595 -4 41 -8 102 -9 137 0 34 -3 62 -7 61 -5 0 -276 -100
-603 -222z"/>
<path d="M23791 39295 c-361 -167 -481 -205 -861 -270 -118 -20 -218 -39 -222
-43 -3 -4 -25 -97 -48 -207 -96 -464 -149 -605 -269 -726 -67 -67 -140 -104
-247 -126 -102 -21 -238 -7 -417 42 -217 59 -406 144 -662 296 -250 149 -413
266 -1141 817 l-44 34 0 -37 c0 -26 68 -180 254 -578 241 -515 590 -1251 671
-1420 42 -86 98 -143 149 -152 112 -18 1265 -100 1626 -116 295 -13 1054 -7
1340 11 732 45 1833 151 1918 185 72 29 100 75 216 347 60 139 249 577 421
973 172 396 328 757 348 802 33 76 34 83 17 88 -14 4 -62 -30 -182 -132 -621
-525 -971 -772 -1373 -964 -462 -221 -756 -225 -954 -13 -154 164 -229 403
-316 1009 -20 138 -37 253 -38 257 -1 4 -85 -30 -186 -77z"/>
<path d="M23350 36472 c-85 -8 -156 -16 -158 -17 -1 -1 6 -391 18 -866 46
-1972 48 -2069 90 -4324 17 -874 39 -2026 50 -2560 48 -2326 62 -3019 90
-4490 41 -2124 57 -3050 75 -4180 17 -1072 24 -1465 60 -3080 50 -2264 55
-2535 56 -3285 0 -470 4 -756 9 -742 33 82 34 159 22 2614 -14 2750 -27 4645
-67 9978 -43 5730 -53 7197 -61 9298 -5 1209 -10 1672 -18 1671 -6 -1 -81 -8
-166 -17z"/>
</g>
</svg>
